<svg width="46" height="46" viewBox="0 0 46 46" fill="none" xmlns="http://www.w3.org/2000/svg">
<g clip-path="url(#clip0_18_177)">
<path d="M42.1667 9.76222C40.4544 6.24833 35.5222 3.37333 29.785 5.04722C27.0435 5.83911 24.6515 7.53733 23 9.86444C21.3484 7.53733 18.9565 5.83911 16.215 5.04722C10.465 3.39889 5.54555 6.24833 3.83333 9.76222C1.4311 14.6817 2.42777 20.2144 6.79777 26.2072C10.2222 30.8967 15.1161 35.65 22.2205 41.17C22.4451 41.3451 22.7216 41.4402 23.0064 41.4402C23.2911 41.4402 23.5677 41.3451 23.7922 41.17C30.8839 35.6628 35.7905 30.9478 39.215 26.2072C43.5722 20.2144 44.5689 14.6817 42.1667 9.76222Z" fill="#DD0040"/>
</g>
<defs>
<clipPath id="clip0_18_177">
<rect width="46" height="46" fill="white"/>
</clipPath>
</defs>
</svg>
